<svg width="24" height="24" viewBox="0 0 24 24" fill="none" xmlns="http://www.w3.org/2000/svg">
<path d="M4.22222 6.48608H5.33333C5.9227 6.48608 6.48793 6.24903 6.90468 5.82707C7.32143 5.40512 7.55556 4.83282 7.55556 4.23608C7.55556 3.93772 7.67262 3.65157 7.88099 3.44059C8.08937 3.22961 8.37198 3.11108 8.66667 3.11108H15.3333C15.628 3.11108 15.9106 3.22961 16.119 3.44059C16.3274 3.65157 16.4444 3.93772 16.4444 4.23608C16.4444 4.83282 16.6786 5.40512 17.0953 5.82707C17.5121 6.24903 18.0773 6.48608 18.6667 6.48608H19.7778C20.3671 6.48608 20.9324 6.72314 21.3491 7.14509C21.7659 7.56705 22 8.13935 22 8.73608V18.8611C22 19.4578 21.7659 20.0301 21.3491 20.4521C20.9324 20.874 20.3671 21.1111 19.7778 21.1111H4.22222C3.63285 21.1111 3.06762 20.874 2.65087 20.4521C2.23413 20.0301 2 19.4578 2 18.8611V8.73608C2 8.13935 2.23413 7.56705 2.65087 7.14509C3.06762 6.72314 3.63285 6.48608 4.22222 6.48608Z" stroke="#999999" stroke-width="2" stroke-linecap="round" stroke-linejoin="round"/>
<path d="M8.66602 13.2361C8.66602 14.1312 9.0172 14.9896 9.64233 15.6226C10.2674 16.2555 11.1153 16.6111 11.9993 16.6111C12.8834 16.6111 13.7313 16.2555 14.3564 15.6226C14.9815 14.9896 15.3327 14.1312 15.3327 13.2361C15.3327 12.341 14.9815 11.4825 14.3564 10.8496C13.7313 10.2167 12.8834 9.86108 11.9993 9.86108C11.1153 9.86108 10.2674 10.2167 9.64233 10.8496C9.0172 11.4825 8.66602 12.341 8.66602 13.2361Z" stroke="#999999" stroke-width="2" stroke-linecap="round" stroke-linejoin="round"/>
</svg>
